<?xml version="1.0" encoding="iso-8859-1"?>
<!-- Generator: Adobe Illustrator 19.0.0, SVG Export Plug-In . SVG Version: 6.00 Build 0)  -->
<svg version="1.1" id="Capa_1" xmlns="http://www.w3.org/2000/svg" xmlns:xlink="http://www.w3.org/1999/xlink" x="0px" y="0px"
	 viewBox="0 0 512 512" style="enable-background:new 0 0 512 512;" xml:space="preserve">
<g>
	<path style="fill:#A7A7A7;" d="M198.009,257.93c46.783-11.167,94.677-75.639,91.859-123.653
		c-3.613-61.54-171.654-100.1-204.459-55.941C52.604,122.496,138.046,272.243,198.009,257.93z"/>
	<path style="fill:#FF8346;" d="M200.752,360.757c-17.753-44.7-88.419-82.868-135.535-73.201
		c-60.389,12.39-74.483,184.221-26.08,210.363C87.539,524.061,223.504,418.051,200.752,360.757z"/>
	<path style="fill:#F0F0FB;" d="M332.249,207.486c36.862,30.894,117.177,30.894,154.039,0C533.536,167.887,464.28,10,409.269,10
		S285.002,167.887,332.249,207.486z"/>
	<path style="fill:#5381D3;" d="M414.982,266.134c-43.253-21.035-121.172-1.561-149.442,37.349
		c-36.235,49.873,69.236,186.257,122.605,172.918C441.514,463.064,470.42,293.096,414.982,266.134z"/>
</g>
<path d="M15.7,374.135l7.383,1.292c0.952-5.44-2.687-10.622-8.127-11.574C9.52,362.91,4.334,366.54,3.382,371.98
	c-0.012,0.07-0.031,0.185-0.042,0.256l9.883,1.526L15.7,374.135z"/>
<path d="M63.207,277.76c-25.11,5.151-39.986,30.255-48.045,50.408c-2.051,5.128,0.444,10.947,5.572,12.998
	c5.128,2.054,10.948-0.444,12.998-5.572c5.104-12.764,16.242-34.702,33.494-38.242c42.165-8.651,108.344,27.094,124.231,67.097
	c7.707,19.405-9.387,51.572-43.548,81.949c-38.802,34.503-84.495,53.271-104.02,42.724c-15.972-8.626-25.68-44.372-23.607-86.929
	c0.268-5.517-3.986-10.206-9.502-10.475c-5.514-0.258-10.206,3.985-10.475,9.502c-1.997,41.024,5.906,90.282,34.079,105.499
	c6.75,3.646,14.522,5.283,22.953,5.282c32.027-0.002,73.488-23.649,103.862-50.657c41.767-37.14,60.028-76.122,48.846-104.277
	C190.516,307.891,115.034,267.122,63.207,277.76z"/>
<path d="M116.225,393.503c1.93,1.809,4.386,2.704,6.837,2.704c2.668,0,5.329-1.06,7.297-3.161
	c3.777-4.028,3.573-10.357-0.456-14.135c-11.127-10.431-24.866-17.565-39.73-20.631c-5.415-1.117-10.699,2.365-11.814,7.774
	c-1.116,5.409,2.365,10.698,7.774,11.813C97.384,380.188,107.79,385.595,116.225,393.503z"/>
<path d="M481.644,110.266c1.434,4.127,5.303,6.721,9.445,6.721c1.074,0,2.165-0.175,3.238-0.541
	c5.226-1.788,8.013-7.474,6.225-12.699c-0.019-0.053-0.057-0.162-0.076-0.215c-1.876-5.195-7.608-7.888-12.802-6.009
	C482.499,99.391,479.809,105.087,481.644,110.266z"/>
<path d="M511.03,147.965c-0.633-5.487-5.591-9.42-11.08-8.789c-5.487,0.633-9.421,5.594-8.789,11.08
	c1.575,13.655,2.201,38.253-11.297,49.565c-32.989,27.648-108.204,27.648-141.193,0c-16.003-13.412-16.249-49.838-0.626-92.8
	C355.791,58.225,387.076,20,409.269,20c18.152,0,43.68,26.84,62.081,65.269c2.385,4.983,8.358,7.086,13.338,4.701
	c4.982-2.385,7.087-8.356,4.701-13.338C471.651,39.585,441.288,0,409.269,0c-36.817,0-72.472,51.934-90.018,100.186
	c-19.101,52.527-16.643,95.504,6.575,114.963c20.278,16.996,51.855,25.493,83.443,25.491c31.58-0.002,63.169-8.499,83.443-25.491
	C512.358,198.686,513.517,169.526,511.03,147.965z"/>
<path d="M424.967,137.963c-11,3.306-22.725,3.492-33.905,0.544c-5.341-1.411-10.811,1.778-12.22,7.118s1.778,10.812,7.119,12.22
	c6.938,1.831,14.035,2.744,21.121,2.744c7.979,0,15.943-1.159,23.641-3.472c5.289-1.589,8.289-7.165,6.7-12.455
	C435.832,139.374,430.254,136.375,424.967,137.963z"/>
<path d="M374.911,327.317c-15.216-0.201-30.206,3.799-43.249,11.56c-4.746,2.824-6.305,8.961-3.48,13.707
	c1.87,3.143,5.193,4.889,8.603,4.889c1.739,0,3.501-0.454,5.104-1.408c9.872-5.873,21.201-8.873,32.763-8.749
	c0.044,0.001,0.088,0.001,0.132,0.001c5.462,0,9.926-4.393,9.997-9.87C384.851,331.924,380.432,327.389,374.911,327.317z"/>
<path d="M419.356,257.141c-47.585-23.141-130.805-2.339-161.906,40.465c-17.807,24.509-9.771,66.8,21.498,113.128
	c26.073,38.63,67.353,76.586,101.464,76.586c3.468,0,6.862-0.393,10.159-1.217c35.717-8.927,57.715-67.955,63.039-119.022
	C459.404,311.49,446.598,270.391,419.356,257.141z M433.717,365.008c-5.384,51.643-26.467,96.312-47.997,101.693
	c-21.529,5.375-61.149-24.116-90.195-67.155c-25.575-37.892-34.168-73.292-21.895-90.184c18.349-25.254,61.762-41.782,99.002-41.782
	c14.111,0,27.341,2.375,37.977,7.548C429.386,284.259,438.456,319.539,433.717,365.008z"/>
<path d="M183.954,187.4c2.188,0,4.392-0.715,6.235-2.187c11.918-9.52,20.946-22.096,26.108-36.366
	c1.878-5.193-0.809-10.927-6.002-12.805c-5.192-1.883-10.927,0.808-12.805,6.002c-3.907,10.801-10.748,20.325-19.783,27.543
	c-4.315,3.447-5.019,9.74-1.572,14.055C178.11,186.114,181.018,187.4,183.954,187.4z"/>
<path d="M189.805,268.878c3.583,0,7.099-0.402,10.525-1.221c51.464-12.284,102.62-81.145,99.52-133.966
	c-1.775-30.242-34.809-57.844-88.365-73.835C162.285,45.168,99.336,42.819,77.382,72.374
	c-21.955,29.553-1.528,89.144,26.742,132.004C131.32,245.61,162.569,268.879,189.805,268.878z M93.437,84.3
	c7.385-9.94,26.008-15.056,49.674-15.056c18.748,0,40.661,3.211,62.653,9.777c43.803,13.079,72.898,34.998,74.122,55.843
	c2.522,42.97-42.331,103.348-84.199,113.341c-20.312,4.844-49.697-16.679-74.868-54.839C92.23,150.022,80.203,102.114,93.437,84.3z"
	/>
<g>
</g>
<g>
</g>
<g>
</g>
<g>
</g>
<g>
</g>
<g>
</g>
<g>
</g>
<g>
</g>
<g>
</g>
<g>
</g>
<g>
</g>
<g>
</g>
<g>
</g>
<g>
</g>
<g>
</g>
</svg>
